<svg width="40" height="40" viewBox="0 0 40 40" fill="none" xmlns="http://www.w3.org/2000/svg">
<path d="M4.80001 28.1334C4.30876 28.5911 3.91475 29.1431 3.64147 29.7565C3.36819 30.3698 3.22124 31.0319 3.2094 31.7032C3.19755 32.3746 3.32105 33.0414 3.57252 33.664C3.824 34.2866 4.19829 34.8522 4.67308 35.327C5.14788 35.8018 5.71343 36.1761 6.33602 36.4275C6.95861 36.679 7.62547 36.8025 8.29682 36.7907C8.96818 36.7788 9.63027 36.6319 10.2436 36.3586C10.8569 36.0853 11.4089 35.6913 11.8667 35.2C12.803 34.2625 13.3289 32.9917 13.3289 31.6667C13.3289 30.3417 12.803 29.0709 11.8667 28.1334C10.9129 27.2284 9.64817 26.7238 8.33334 26.7238C7.01851 26.7238 5.7538 27.2284 4.80001 28.1334ZM9.51667 32.85C9.36173 33.0063 9.1774 33.1302 8.9743 33.2149C8.7712 33.2995 8.55336 33.343 8.33334 33.343C8.11332 33.343 7.89548 33.2995 7.69238 33.2149C7.48928 33.1302 7.30494 33.0063 7.15001 32.85C6.99379 32.6951 6.8698 32.5108 6.78519 32.3077C6.70057 32.1046 6.65701 31.8867 6.65701 31.6667C6.65701 31.4467 6.70057 31.2288 6.78519 31.0257C6.8698 30.8226 6.99379 30.6383 7.15001 30.4834C7.30494 30.3272 7.48928 30.2032 7.69238 30.1186C7.89548 30.0339 8.11332 29.9904 8.33334 29.9904C8.55336 29.9904 8.7712 30.0339 8.9743 30.1186C9.1774 30.2032 9.36173 30.3272 9.51667 30.4834C9.67289 30.6383 9.79688 30.8226 9.88149 31.0257C9.96611 31.2288 10.0097 31.4467 10.0097 31.6667C10.0097 31.8867 9.96611 32.1046 9.88149 32.3077C9.79688 32.5108 9.67289 32.6951 9.51667 32.85ZM8.33334 20C7.89131 20 7.46739 20.1756 7.15483 20.4882C6.84227 20.8008 6.66667 21.2247 6.66667 21.6667C6.66667 22.1087 6.84227 22.5327 7.15483 22.8452C7.46739 23.1578 7.89131 23.3334 8.33334 23.3334C10.5435 23.3334 12.6631 24.2113 14.2259 25.7742C15.7887 27.337 16.6667 29.4566 16.6667 31.6667C16.6667 32.1087 16.8423 32.5327 17.1548 32.8452C17.4674 33.1578 17.8913 33.3334 18.3333 33.3334C18.7754 33.3334 19.1993 33.1578 19.5119 32.8452C19.8244 32.5327 20 32.1087 20 31.6667C20 28.5725 18.7708 25.6051 16.5829 23.4171C14.395 21.2292 11.4275 20 8.33334 20ZM8.33334 13.3334C7.89131 13.3334 7.46739 13.509 7.15483 13.8215C6.84227 14.1341 6.66667 14.558 6.66667 15C6.66667 15.4421 6.84227 15.866 7.15483 16.1786C7.46739 16.4911 7.89131 16.6667 8.33334 16.6667C12.3116 16.6667 16.1269 18.2471 18.9399 21.0601C21.753 23.8732 23.3333 27.6885 23.3333 31.6667C23.3333 32.1087 23.5089 32.5327 23.8215 32.8452C24.1341 33.1578 24.558 33.3334 25 33.3334C25.442 33.3334 25.866 33.1578 26.1785 32.8452C26.4911 32.5327 26.6667 32.1087 26.6667 31.6667C26.6667 26.8044 24.7351 22.1413 21.297 18.7031C17.8588 15.2649 13.1956 13.3334 8.33334 13.3334Z" fill="#C7CCD1"/>
</svg>
